# xmcd
#
# Track frame offsets:
#	150
#	13849
#	27581
#	40728
#	51972
#	64363
#	76881
#	89116
#	101255
#	113984
#	127285
#	139032
#	151835
#	163449
#	174780
#	186994
#	200185
#	211482
#	224068
#	235737
#	246293
#	258639
#	271135
#	284778
#	298242
#
# Disc length: 4165 seconds
#
# Revision: 2
# Processed by: cddbd v1.5.1PL2 Copyright (c) Steve Scherf et al.
# Submitted via: audiograbber 1.82.01
#
DISCID=97104319
DTITLE=Sonny Boy Williamson - Nine Below Zero
DYEAR=1900
DGENRE=Blues
TTITLE0=Crazy ´Bout You, Baby
TTITLE1=Eyesight To The Blind
TTITLE2=Stop Crying
TTITLE3=Do It If You Wanta
TTITLE4=Cool, Cool Blues
TTITLE5=Come On Back Home
TTITLE6=I Cross My Heart
TTITLE7=Pontiac Blues
TTITLE8=West Memphis Blues
TTITLE9=Mighty Lomg Time
TTITLE10=Sonny Boy´s Christmas Blues
TTITLE11=Nine Below Zero
TTITLE12=Too Close Together
TTITLE13=Mr Down Child
TTITLE14=Stop Now Baby
TTITLE15=Cat Hop
TTITLE16=City Of New Orleans
TTITLE17=She´s Crazy
TTITLE18=Keep It To Yourself
TTITLE19=Sonny´s Rhythm
TTITLE20=`309´ - Elmore James
TTITLE21=Dust My Broom - Bo Bo Thomas (as Elmo James)
TTITLE22=Catfish Blues - Big Boy Crudup (as Elmer James)
TTITLE23=Gotta Find My Baby
TTITLE24=Make A Little Love
EXTD=
EXTT0=
EXTT1=
EXTT2=
EXTT3=
EXTT4=
EXTT5=
EXTT6=
EXTT7=
EXTT8=
EXTT9=
EXTT10=
EXTT11=
EXTT12=
EXTT13=
EXTT14=
EXTT15=
EXTT16=
EXTT17=
EXTT18=
EXTT19=
EXTT20=
EXTT21=
EXTT22=
EXTT23=
EXTT24=
PLAYORDER=
